<svg width="47" height="47" viewBox="0 0 47 47" fill="none" xmlns="http://www.w3.org/2000/svg">
<g opacity="0.8">
<path d="M23.7688 42.911C21.1317 42.911 18.6534 42.4103 16.334 41.4088C14.0146 40.4086 11.997 39.0506 10.2813 37.3349C8.5656 35.6192 7.20764 33.6016 6.20743 31.2822C5.20596 28.9628 4.70522 26.4845 4.70522 23.8474C4.70522 21.2103 5.20596 18.732 6.20743 16.4126C7.20764 14.0932 8.5656 12.0756 10.2813 10.3599C11.997 8.64419 14.0146 7.28559 16.334 6.28412C18.6534 5.28391 21.1317 4.78381 23.7688 4.78381C26.4059 4.78381 28.8842 5.28391 31.2036 6.28412C33.523 7.28559 35.5406 8.64419 37.2563 10.3599C38.972 12.0756 40.33 14.0932 41.3302 16.4126C42.3317 18.732 42.8324 21.2103 42.8324 23.8474C42.8324 26.4845 42.3317 28.9628 41.3302 31.2822C40.33 33.6016 38.972 35.6192 37.2563 37.3349C35.5406 39.0506 33.523 40.4086 31.2036 41.4088C28.8842 42.4103 26.4059 42.911 23.7688 42.911ZM23.7688 39.0983C28.0263 39.0983 31.6325 37.6208 34.5874 34.666C37.5423 31.7111 39.0197 28.1049 39.0197 23.8474C39.0197 19.5899 37.5423 15.9837 34.5874 13.0288C31.6325 10.074 28.0263 8.59653 23.7688 8.59653C19.5113 8.59653 15.9051 10.074 12.9502 13.0288C9.99537 15.9837 8.51794 19.5899 8.51794 23.8474C8.51794 28.1049 9.99537 31.7111 12.9502 34.666C15.9051 37.6208 19.5113 39.0983 23.7688 39.0983Z" fill="#D9C8FF"/>
<path d="M25.1865 10.0257C25.3998 10.0562 25.5861 10.1486 25.7151 10.2879C25.8441 10.4272 25.908 10.6051 25.8965 10.7925L25.2832 20.9357L31.6001 18.9815C31.7857 18.924 31.981 18.9121 32.1619 18.9474C32.3428 18.9826 32.5013 19.0635 32.618 19.1799C32.7346 19.2963 32.8043 19.4432 32.8183 19.6024C32.8323 19.7617 32.7901 19.9263 32.6968 20.076L21.5711 37.9753C21.4635 38.1486 21.2935 38.2924 21.0887 38.3835C20.884 38.4745 20.6566 38.5073 20.4437 38.4765C20.2308 38.4457 20.0448 38.3531 19.9161 38.2139C19.7875 38.0747 19.7237 37.897 19.7352 37.7098L20.3481 27.5651L14.0312 29.5193C13.8456 29.5768 13.6502 29.5886 13.4694 29.5534C13.2885 29.5181 13.1299 29.4373 13.0133 29.3209C12.8966 29.2045 12.827 29.0576 12.813 28.8983C12.799 28.7391 12.8412 28.5745 12.9344 28.4248L24.0601 10.5255C24.1676 10.3524 24.3374 10.2087 24.5418 10.1177C24.7462 10.0266 24.9732 9.99365 25.186 10.0241L25.1865 10.0257ZM15.7504 27.2866L21.1548 25.6146C21.3035 25.5686 21.459 25.5517 21.6087 25.5653C21.7585 25.5789 21.8983 25.6227 22.0169 25.693C22.1355 25.7634 22.2296 25.8583 22.2917 25.9703C22.3537 26.0823 22.382 26.2082 22.3741 26.3378L21.9073 34.0392L29.879 21.2148L24.4765 22.8861C24.3277 22.9322 24.1722 22.9491 24.0225 22.9355C23.8728 22.9218 23.733 22.8781 23.6144 22.8077C23.4958 22.7374 23.4016 22.6424 23.3396 22.5304C23.2775 22.4184 23.2493 22.2925 23.2571 22.1629L23.724 14.4615L15.7504 27.2866Z" fill="#D9C8FF"/>
</g>
</svg>
