<svg width="49" height="49" viewBox="0 0 49 49" fill="none" xmlns="http://www.w3.org/2000/svg">
<g opacity="0.8">
<path d="M41.6925 6.33521C41.9601 6.33521 42.2168 6.44154 42.4061 6.63081C42.5954 6.82008 42.7017 7.07678 42.7017 7.34445V27.2065C41.4301 26.7624 40.0777 26.5202 38.6647 26.5202V11.7851L32.6092 14.1266V28.135C30.9944 29.0837 29.5815 30.3755 28.5722 31.9298V14.1468L20.4982 11.3209V34.8566L26.6547 37.0164L26.5537 38.6312C26.5537 39.5597 26.6547 40.4882 26.8565 41.3561L18.4797 38.4293L7.70096 42.6076L7.378 42.6682C7.11033 42.6682 6.85362 42.5618 6.66435 42.3726C6.47508 42.1833 6.36875 41.9266 6.36875 41.6589V11.1392C6.36875 10.675 6.67153 10.3116 7.09541 10.1704L18.4797 6.33521L30.5907 10.5741L41.3695 6.39576L41.6925 6.33521ZM10.4057 13.3192V37.2384L16.4612 34.8969V11.2805L10.4057 13.3192Z" fill="#B3A4D5"/>
<path d="M36.8357 23.5498C36.9962 23.5826 37.1386 23.6667 37.2397 23.7884C37.3407 23.9102 37.3944 24.0624 37.3919 24.2202L37.2662 32.7593L41.9263 31.3176C42.0632 31.2752 42.2089 31.2716 42.3454 31.3073C42.4818 31.343 42.603 31.4164 42.6941 31.5184C42.7851 31.6205 42.842 31.7467 42.8577 31.8816C42.8735 32.0164 42.8473 32.1539 42.7825 32.2772L35.0495 47.016C34.9747 47.1587 34.8522 47.2745 34.7021 47.3446C34.552 47.4147 34.383 47.4349 34.2227 47.4019C34.0625 47.3689 33.9204 47.2847 33.8196 47.163C33.7188 47.0413 33.6653 46.8893 33.6677 46.7317L33.793 38.1913L29.1329 39.633C28.996 39.6754 28.8503 39.679 28.7139 39.6433C28.5774 39.6076 28.4562 39.5342 28.3651 39.4322C28.2741 39.3301 28.2172 39.2039 28.2015 39.069C28.1858 38.9342 28.2119 38.7966 28.2767 38.6734L36.0098 23.9346C36.0845 23.7921 36.2067 23.6764 36.3566 23.6063C36.5065 23.5362 36.6752 23.5158 36.8353 23.5485L36.8357 23.5498ZM30.3454 37.8054L34.3323 36.572C34.442 36.538 34.5578 36.5288 34.6702 36.5452C34.7826 36.5617 34.8886 36.6032 34.9796 36.6664C35.0706 36.7297 35.1441 36.8129 35.1942 36.9095C35.2443 37.006 35.2696 37.1132 35.268 37.2223L35.1717 43.7056L40.7125 33.1456L36.7269 34.3786C36.6172 34.4126 36.5015 34.4217 36.389 34.4053C36.2766 34.3889 36.1706 34.3474 36.0796 34.2842C35.9886 34.2209 35.9151 34.1377 35.865 34.0411C35.8149 33.9446 35.7897 33.8374 35.7913 33.7283L35.8876 27.2449L30.3454 37.8054Z" fill="#B3A4D5"/>
</g>
</svg>
