<svg width="46" height="45" viewBox="0 0 46 45" fill="none" xmlns="http://www.w3.org/2000/svg">
<g opacity="0.8">
<path d="M22.6474 3.81189C20.193 3.81189 17.7627 4.29532 15.4951 5.23457C13.2276 6.17382 11.1672 7.5505 9.4317 9.286C5.92668 12.791 3.95758 17.5448 3.95758 22.5017C3.95758 27.4585 5.92668 32.2124 9.4317 35.7174C11.1672 37.4529 13.2276 38.8296 15.4951 39.7688C17.7627 40.7081 20.193 41.1915 22.6474 41.1915C27.6042 41.1915 32.358 39.2224 35.8631 35.7174C39.3681 32.2124 41.3372 27.4585 41.3372 22.5017C41.3372 20.0473 40.8537 17.617 39.9145 15.3494C38.9753 13.0819 37.5986 11.0215 35.8631 9.286C34.1276 7.5505 32.0672 6.17382 29.7997 5.23457C27.5321 4.29532 25.1018 3.81189 22.6474 3.81189ZM13.4333 34.2389C14.237 32.5568 19.1337 30.9121 22.6474 30.9121C26.1611 30.9121 31.0578 32.5568 31.8614 34.2389C29.2437 36.3247 25.9945 37.4583 22.6474 37.4535C19.1711 37.4535 15.9751 36.2574 13.4333 34.2389ZM34.5341 31.5289C31.8614 28.2768 25.3761 27.1741 22.6474 27.1741C19.9187 27.1741 13.4333 28.2768 10.7607 31.5289C8.77242 28.9396 7.69492 25.7662 7.69554 22.5017C7.69554 14.2595 14.4052 7.54985 22.6474 7.54985C30.8896 7.54985 37.5992 14.2595 37.5992 22.5017C37.5992 25.9032 36.4404 29.0431 34.5341 31.5289ZM22.6474 11.2878C19.0216 11.2878 16.1059 14.2034 16.1059 17.8292C16.1059 21.4551 19.0216 24.3707 22.6474 24.3707C26.2732 24.3707 29.1888 21.4551 29.1888 17.8292C29.1888 14.2034 26.2732 11.2878 22.6474 11.2878ZM22.6474 20.6327C21.9039 20.6327 21.1908 20.3373 20.665 19.8116C20.1393 19.2858 19.8439 18.5728 19.8439 17.8292C19.8439 17.0857 20.1393 16.3726 20.665 15.8469C21.1908 15.3211 21.9039 15.0258 22.6474 15.0258C23.3909 15.0258 24.104 15.3211 24.6297 15.8469C25.1555 16.3726 25.4508 17.0857 25.4508 17.8292C25.4508 18.5728 25.1555 19.2858 24.6297 19.8116C24.104 20.3373 23.3909 20.6327 22.6474 20.6327Z" fill="#7F45FF"/>
</g>
</svg>
