<svg width="62" height="62" viewBox="0 0 62 62" fill="none" xmlns="http://www.w3.org/2000/svg">
<g opacity="0.8" clip-path="url(#clip0_102_16)">
<path d="M44.7894 24.394C44.3615 24.2423 44.0034 23.9401 43.7821 23.5438C43.5607 23.1474 43.4912 22.684 43.5864 22.2401L44.3627 18.7239C44.4494 18.3387 44.4119 17.9358 44.2555 17.5732C44.0992 17.2105 43.8319 16.9068 43.4922 16.7054L37.0754 12.8824C36.7376 12.6804 36.3447 12.5903 35.9527 12.6247C35.5606 12.6592 35.1894 12.8165 34.892 13.0744L32.1707 15.4078C31.8254 15.7064 31.3828 15.8684 30.9263 15.8631C30.4698 15.8578 30.031 15.6855 29.6928 15.3789L27.0296 12.9488C26.7391 12.6858 26.3734 12.5208 25.984 12.4771C25.5946 12.4333 25.2013 12.5131 24.8598 12.705L18.3329 16.3505C17.9667 16.5306 17.6695 16.8257 17.4868 17.1906C17.3041 17.5555 17.2458 17.9702 17.3209 18.3714L18.0749 21.8678C18.1586 22.3166 18.0751 22.7805 17.8403 23.172C17.6054 23.5635 17.2353 23.8554 16.7999 23.9928L13.3044 25.1317C12.9603 25.2647 12.6633 25.4966 12.4508 25.7982C12.2383 26.0998 12.1197 26.4575 12.1101 26.8263L12 34.2947C11.9871 34.6887 12.099 35.0767 12.3198 35.4032C12.5406 35.7297 12.859 35.978 13.2295 36.1127L16.6141 37.3049C17.042 37.4566 17.4001 37.7588 17.6215 38.1552C17.8429 38.5515 17.9124 39.0149 17.8171 39.4588L17.0572 42.9659C16.9776 43.352 17.022 43.7533 17.1843 44.1126C17.3465 44.4718 17.6181 44.7706 17.9603 44.9662L24.3771 48.7892C24.7149 48.9912 25.1078 49.0813 25.4999 49.0469C25.8919 49.0124 26.2631 48.8551 26.5605 48.5972L29.2818 46.2638C29.6271 45.9652 30.0697 45.8032 30.5262 45.8085C30.9827 45.8138 31.4215 45.9861 31.7598 46.2927L34.4229 48.7228C34.7251 48.9971 35.1087 49.165 35.5153 49.2008C35.9218 49.2366 36.3289 49.1383 36.6743 48.921L43.2012 45.2756C43.5438 45.0854 43.8179 44.7924 43.9849 44.4379C44.1518 44.0834 44.2032 43.6854 44.1316 43.3002L43.4592 39.7582C43.3755 39.3094 43.459 38.8455 43.6938 38.454C43.9287 38.0626 44.2988 37.7706 44.7342 37.6332L48.1481 36.5399C48.5236 36.4219 48.8522 36.1884 49.0872 35.8727C49.3221 35.5569 49.4514 35.1751 49.4566 34.7816L49.5667 27.3131C49.5735 26.9182 49.455 26.5314 49.2282 26.208C49.0015 25.8847 48.6781 25.6415 48.3046 25.5133L44.7894 24.394ZM43.5794 27.9384L45.705 28.6779L45.6396 33.4668L43.4955 34.1506C42.1861 34.5668 41.0751 35.4492 40.3734 36.6304C39.6716 37.8116 39.428 39.2093 39.6888 40.5583L40.0894 42.7321L35.9122 45.0652L34.2859 43.5331C33.2741 42.6037 31.9562 42.0781 30.5825 42.0561C29.2087 42.0341 27.8747 42.5173 26.8337 43.4139L25.127 44.8809L20.9917 42.4596L21.4768 40.262C21.7783 38.9161 21.5731 37.5064 20.9006 36.3023C20.2281 35.0982 19.1354 34.1842 17.8314 33.7351L15.7058 32.9956L15.7894 28.2393L17.9335 27.5555C19.2429 27.1393 20.3539 26.2569 21.0556 25.0757C21.7574 23.8945 22.001 22.4968 21.7402 21.1479L21.3304 18.9577L25.5076 16.6246L27.1667 18.1385C28.1785 19.0679 29.4963 19.5935 30.87 19.6155C32.2438 19.6375 33.5778 19.1543 34.6188 18.2577L36.3255 16.7907L40.4373 19.2466L39.9522 21.4442C39.6586 22.7829 39.8655 24.1828 40.5338 25.3794C41.2021 26.576 42.2856 27.4863 43.5794 27.9384ZM27.0645 24.318C25.7736 25.039 24.7255 26.1266 24.0527 27.4433C23.38 28.76 23.1127 30.2466 23.2848 31.7151C23.457 33.1837 24.0607 34.5682 25.0197 35.6936C25.9787 36.8191 27.2498 37.6349 28.6725 38.0378C30.0951 38.4408 31.6053 38.4129 33.012 37.9576C34.4188 37.5023 35.6589 36.64 36.5756 35.4799C37.4923 34.3198 38.0444 32.9139 38.1621 31.44C38.2798 29.9661 37.9578 28.4904 37.2368 27.1995C36.27 25.4684 34.6551 24.1924 32.7474 23.652C30.8397 23.1116 28.7955 23.3512 27.0645 24.318ZM32.5327 34.1084C31.8872 34.4689 31.1494 34.6299 30.4124 34.571C29.6755 34.5122 28.9725 34.2361 28.3924 33.7778C27.8124 33.3194 27.3813 32.6993 27.1536 31.996C26.926 31.2926 26.912 30.5375 27.1135 29.8262C27.315 29.1149 27.7229 28.4793 28.2856 27.9998C28.8483 27.5203 29.5406 27.2184 30.2748 27.1324C31.0091 27.0463 31.7524 27.1799 32.4107 27.5163C33.0691 27.8527 33.6129 28.3767 33.9734 29.0222C34.4568 29.8877 34.5766 30.9098 34.3064 31.8637C34.0362 32.8175 33.3982 33.6249 32.5327 34.1084Z" fill="#D9C8FF"/>
</g>
<g opacity="0.8">
<path d="M57.3843 17.913C57.2825 17.797 57.2263 17.6479 57.2263 17.4936C57.2263 17.3392 57.2825 17.1901 57.3843 17.0742L58.1977 16.1591C58.2873 16.0592 58.343 15.9334 58.3567 15.7998C58.3704 15.6662 58.3414 15.5317 58.274 15.4156L57.0031 13.217C56.9363 13.101 56.8346 13.0091 56.7125 12.9543C56.5904 12.8996 56.4541 12.8847 56.3231 12.912L55.1285 13.1534C54.9765 13.1848 54.8182 13.1595 54.6836 13.0823C54.549 13.005 54.4473 12.8811 54.3977 12.734L54.0101 11.5712C53.9674 11.4449 53.8862 11.3353 53.7779 11.2578C53.6696 11.1802 53.5396 11.1387 53.4064 11.139H50.8646C50.726 11.1318 50.5889 11.1701 50.4741 11.2482C50.3594 11.3262 50.2733 11.4396 50.2291 11.5712L49.8733 12.734C49.8237 12.8811 49.722 13.005 49.5874 13.0823C49.4528 13.1595 49.2945 13.1848 49.1425 13.1534L47.9161 12.912C47.7919 12.8944 47.6653 12.914 47.5522 12.9683C47.4391 13.0226 47.3446 13.1091 47.2806 13.217L46.0097 15.4156C45.9406 15.5304 45.9095 15.6642 45.9209 15.7977C45.9323 15.9312 45.9856 16.0577 46.0733 16.1591L46.8803 17.0742C46.9822 17.1901 47.0383 17.3392 47.0383 17.4936C47.0383 17.6479 46.9822 17.797 46.8803 17.913L46.0733 18.828C45.9856 18.9294 45.9323 19.0559 45.9209 19.1895C45.9095 19.323 45.9406 19.4567 46.0097 19.5715L47.2806 21.7702C47.3474 21.8861 47.4491 21.978 47.5712 22.0328C47.6933 22.0876 47.8295 22.1024 47.9606 22.0752L49.1552 21.8337C49.3072 21.8023 49.4655 21.8276 49.6001 21.9049C49.7347 21.9822 49.8364 22.106 49.886 22.2531L50.2736 23.416C50.3178 23.5475 50.4039 23.661 50.5186 23.739C50.6334 23.817 50.7705 23.8553 50.9091 23.8481H53.4509C53.5841 23.8485 53.7141 23.8069 53.8224 23.7294C53.9307 23.6518 54.0119 23.5422 54.0546 23.416L54.4422 22.2531C54.4917 22.106 54.5934 21.9822 54.7281 21.9049C54.8627 21.8276 55.0209 21.8023 55.173 21.8337L56.3676 22.0752C56.4986 22.1024 56.6349 22.0876 56.757 22.0328C56.8791 21.978 56.9808 21.8861 57.0475 21.7702L58.3184 19.5715C58.3859 19.4554 58.4149 19.3209 58.4012 19.1874C58.3875 19.0538 58.3318 18.928 58.2422 18.828L57.3843 17.913ZM56.4375 18.7645L56.9459 19.3364L56.1325 20.7471L55.3827 20.5946C54.925 20.501 54.4489 20.5788 54.0448 20.8131C53.6406 21.0473 53.3366 21.4218 53.1903 21.8655L52.9489 22.5772H51.3221L51.0933 21.8528C50.9471 21.4091 50.6431 21.0346 50.2389 20.8004C49.8348 20.5661 49.3587 20.4883 48.901 20.5819L48.1512 20.7344L47.3251 19.33L47.8335 18.7581C48.1461 18.4086 48.3189 17.9561 48.3189 17.4872C48.3189 17.0183 48.1461 16.5658 47.8335 16.2163L47.3251 15.6444L48.1385 14.2464L48.8883 14.3989C49.346 14.4925 49.8221 14.4147 50.2262 14.1805C50.6303 13.9462 50.9344 13.5717 51.0806 13.128L51.3221 12.41H52.9489L53.1903 13.1344C53.3366 13.578 53.6406 13.9525 54.0448 14.1868C54.4489 14.4211 54.925 14.4988 55.3827 14.4053L56.1325 14.2528L56.9459 15.6635L56.4375 16.2354C56.1284 16.5841 55.9577 17.0339 55.9577 17.4999C55.9577 17.9659 56.1284 18.4158 56.4375 18.7645ZM52.1355 14.9518C51.6328 14.9518 51.1413 15.1008 50.7233 15.3801C50.3053 15.6594 49.9795 16.0564 49.7872 16.5209C49.5948 16.9853 49.5444 17.4964 49.6425 17.9895C49.7406 18.4825 49.9827 18.9354 50.3382 19.2909C50.6936 19.6464 51.1465 19.8885 51.6396 19.9866C52.1327 20.0846 52.6437 20.0343 53.1082 19.8419C53.5727 19.6495 53.9696 19.3237 54.2489 18.9057C54.5282 18.4877 54.6773 17.9963 54.6773 17.4936C54.6773 16.8194 54.4095 16.1729 53.9328 15.6962C53.4561 15.2196 52.8096 14.9518 52.1355 14.9518ZM52.1355 18.7645C51.8841 18.7645 51.6384 18.6899 51.4294 18.5503C51.2204 18.4106 51.0575 18.2122 50.9613 17.9799C50.8651 17.7477 50.84 17.4922 50.889 17.2456C50.938 16.9991 51.0591 16.7727 51.2368 16.5949C51.4146 16.4172 51.641 16.2961 51.8875 16.2471C52.1341 16.1981 52.3896 16.2232 52.6218 16.3194C52.8541 16.4156 53.0526 16.5785 53.1922 16.7875C53.3319 16.9965 53.4064 17.2422 53.4064 17.4936C53.4064 17.8306 53.2725 18.1539 53.0342 18.3922C52.7958 18.6306 52.4726 18.7645 52.1355 18.7645Z" fill="#D9C8FF"/>
</g>
<defs>
<clipPath id="clip0_102_16">
<rect width="44.8555" height="44.8555" fill="white" transform="translate(0.780396 21.8726) rotate(-29.1846)"/>
</clipPath>
</defs>
</svg>
